HIERARCHY
ROOT joint_Root
{
	OFFSET 0.0 0.0 0.0
	CHANNELS 6 Xposition Yposition Zposition Zrotation Xrotation Yrotation 
	JOINT Hips
	{
		OFFSET 4.5925 91.4895 -427.239
		CHANNELS 6 Xposition Yposition Zposition Zrotation Xrotation Yrotation 
		JOINT Spine
		{
			OFFSET 15.7357 0.0 0.0
			CHANNELS 6 Xposition Yposition Zposition Zrotation Xrotation Yrotation 
			JOINT Chest
			{
				OFFSET 8.98455 -0.406207 0.0
				CHANNELS 6 Xposition Yposition Zposition Zrotation Xrotation Yrotation 
				JOINT Neck
				{
					OFFSET 16.3773 0.0 0.0
					CHANNELS 6 Xposition Yposition Zposition Zrotation Xrotation Yrotation 
					JOINT Head
					{
						OFFSET 6.45672 0.0 0.0
						CHANNELS 6 Xposition Yposition Zposition Zrotation Xrotation Yrotation 
						End Site
						{
							OFFSET 0.0 0.0 0.0
						}
					}
				}
				JOINT Shoulder_L
				{
					OFFSET 12.9942 -0.242716 4.98039
					CHANNELS 6 Xposition Yposition Zposition Zrotation Xrotation Yrotation 
					JOINT UpperArm_L
					{
						OFFSET 5.34809 0.0 0.0
						CHANNELS 6 Xposition Yposition Zposition Zrotation Xrotation Yrotation 
						JOINT LowerArm_L
						{
							OFFSET 24.3286 1.87007e-05 0.0
							CHANNELS 6 Xposition Yposition Zposition Zrotation Xrotation Yrotation 
							JOINT Hand_L
							{
								OFFSET 22.2916 0.0 0.0
								CHANNELS 6 Xposition Yposition Zposition Zrotation Xrotation Yrotation 
								End Site
								{
									OFFSET 0.0 0.0 0.0
								}
							}
						}
					}
				}
				JOINT Shoulder_R
				{
					OFFSET 12.9945 -0.242716 -4.98039
					CHANNELS 6 Xposition Yposition Zposition Zrotation Xrotation Yrotation 
					JOINT UpperArm_R
					{
						OFFSET -5.34813 0.0 0.0
						CHANNELS 6 Xposition Yposition Zposition Zrotation Xrotation Yrotation 
						JOINT LowerArm_R
						{
							OFFSET -24.3289 0.000322201 0.0
							CHANNELS 6 Xposition Yposition Zposition Zrotation Xrotation Yrotation 
							JOINT Hand_R
							{
								OFFSET -22.2915 -0.000108084 0.0
								CHANNELS 6 Xposition Yposition Zposition Zrotation Xrotation Yrotation 
								End Site
								{
									OFFSET 0.0 0.0 0.0
								}
							}
						}
					}
				}
			}
		}
		JOINT UpperLeg_L
		{
			OFFSET -2.19248 -6.46944 0.0
			CHANNELS 6 Xposition Yposition Zposition Zrotation Xrotation Yrotation 
			JOINT LowerLeg_L
			{
				OFFSET 39.0811 0.0 -1.23785e-05
				CHANNELS 6 Xposition Yposition Zposition Zrotation Xrotation Yrotation 
				JOINT Foot_L
				{
					OFFSET 40.9854 0.0 -1.26872e-05
					CHANNELS 6 Xposition Yposition Zposition Zrotation Xrotation Yrotation 
					JOINT Toes_L
					{
						OFFSET 11.7543 0.0 0.0
						CHANNELS 6 Xposition Yposition Zposition Zrotation Xrotation Yrotation 
						End Site
						{
							OFFSET 0.0 0.0 0.0
						}
					}
				}
			}
		}
		JOINT UpperLeg_R
		{
			OFFSET -2.19251 6.46944 0.0
			CHANNELS 6 Xposition Yposition Zposition Zrotation Xrotation Yrotation 
			JOINT LowerLeg_R
			{
				OFFSET -39.0811 -0.00228153 -0.0401928
				CHANNELS 6 Xposition Yposition Zposition Zrotation Xrotation Yrotation 
				JOINT Foot_R
				{
					OFFSET -40.9854 0.0 0.0
					CHANNELS 6 Xposition Yposition Zposition Zrotation Xrotation Yrotation 
					JOINT Toes_R
					{
						OFFSET -11.7543 0.0 0.0
						CHANNELS 6 Xposition Yposition Zposition Zrotation Xrotation Yrotation 
						End Site
						{
							OFFSET 0.0 0.0 0.0
						}
					}
				}
			}
		}
	}
}
MOTION
Frames:	9
Frame Time:	0.0333333
0.000000 0.000000 0.000000 0.000000 0.000000 -0.000000 -4.643850 80.154100 -2.216360 87.078500 -3.936820 12.986800 15.735700 0.000005 -0.000001 83.871000 79.630200 -85.704800 8.984550 -0.406207 -0.000000 12.828200 -2.273320 -3.412280 16.377300 -0.000001 -0.000001 -4.125780 1.084160 -0.213827 6.456720 -0.000001 -0.000000 -4.960290 4.017060 0.466756 12.994200 -0.242716 4.980390 -90.900500 3.161060 -74.090200 5.348090 -0.000007 -0.000001 -64.323200 12.293600 -8.420770 24.328600 0.000019 0.000005 9.564210 14.406800 -34.104100 22.291600 -0.000001 0.000005 12.788500 5.261080 1.136600 12.994500 -0.242716 -4.980390 88.046400 10.092900 -78.984800 -5.348130 -0.000001 -0.000004 -59.346900 7.927130 -13.627600 -24.328900 0.000322 -0.000009 -3.143470 -15.713200 -11.459800 -22.291500 -0.000108 -0.000004 7.260830 5.426760 -3.810230 -2.192480 -6.469440 -0.000000 -165.699000 -15.309000 -15.371500 39.081100 -0.000007 -0.000012 -0.441297 0.182987 67.479400 40.985400 -0.000006 -0.000013 0.342998 10.498000 -87.371800 11.754300 -0.000000 0.000003 -0.000367 -0.003076 -16.691300 -2.192510 6.469440 -0.000001 -178.521000 12.085800 164.026000 -39.081100 -0.002282 -0.040193 0.104766 -0.043084 67.024500 -40.985400 0.000008 0.000006 7.328140 0.573308 -88.126200 -11.754300 -0.000006 -0.000006 -0.912259 -1.141630 -16.229800
0.000000 0.000000 0.000000 0.000000 0.000000 -0.000000 -5.624450 82.633300 -1.532080 86.573400 -1.218640 12.450600 15.735700 0.000005 -0.000001 81.181500 80.490800 -84.466900 8.984550 -0.406207 -0.000000 10.960500 -2.985500 -6.281940 16.377300 -0.000001 -0.000001 -3.368920 0.854890 -0.923550 6.456720 -0.000001 -0.000000 -4.955100 3.144460 2.573140 12.994200 -0.242716 4.980390 -90.866300 2.917890 -73.456000 5.348090 -0.000007 -0.000001 -63.622800 7.872820 -6.445480 24.328600 0.000019 0.000005 5.857430 9.117130 -32.919100 22.291600 -0.000001 0.000005 12.776400 5.285580 0.465839 12.994500 -0.242716 -4.980390 88.227700 8.353470 -77.974200 -5.348130 -0.000001 -0.000004 -54.456600 -2.407730 -11.622300 -24.328900 0.000322 -0.000009 -1.020080 -16.566600 -3.568220 -22.291500 -0.000108 -0.000004 8.032740 5.366400 -1.904060 -2.192480 -6.469440 -0.000000 -165.085000 -13.909400 -12.855800 39.081100 -0.000007 -0.000012 -0.366200 0.205923 60.650900 40.985400 -0.000006 -0.000013 -0.151609 12.007500 -83.959700 11.754300 -0.000000 0.000003 -0.000236 -0.002128 -16.657400 -2.192510 6.469440 -0.000001 -177.942000 14.758500 167.749000 -39.081100 -0.002282 -0.040193 0.094185 -0.052786 59.879000 -40.985400 0.000008 0.000006 7.677400 0.658089 -85.254300 -11.754300 -0.000006 -0.000006 -0.846768 -1.053170 -16.453000
0.000000 0.000000 0.000000 0.000000 0.000000 -0.000000 -6.356460 85.602800 -0.857107 86.149800 0.666392 10.898300 15.735700 0.000005 -0.000001 76.674100 81.847400 -81.367700 8.984550 -0.406207 -0.000000 7.976070 -3.751140 -9.118380 16.377300 -0.000001 -0.000001 -1.924630 0.701255 -1.188590 6.456720 -0.000001 -0.000000 -4.421740 2.256700 4.431070 12.994200 -0.242716 4.980390 -90.858000 2.682350 -72.254900 5.348090 -0.000007 -0.000001 -61.904200 4.253590 -3.547710 24.328600 0.000019 0.000005 4.165600 6.491220 -32.790900 22.291600 -0.000001 0.000005 11.326400 5.308360 -0.162808 12.994500 -0.242716 -4.980390 88.633700 5.905270 -76.944800 -5.348130 -0.000001 -0.000004 -46.802300 -17.130800 -12.742500 -24.328900 0.000322 -0.000009 -0.001124 -15.108200 -0.000085 -22.291500 -0.000108 -0.000004 10.656200 5.294260 0.210129 -2.192480 -6.469440 -0.000000 -164.819000 -13.590100 -10.006600 39.081100 -0.000007 -0.000012 -0.290067 0.230696 51.504800 40.985400 -0.000006 -0.000013 -0.881540 13.308400 -79.422300 11.754300 -0.000000 0.000003 -0.000145 -0.001410 -16.631200 -2.192510 6.469440 -0.000001 -177.420000 17.322700 171.408000 -39.081100 -0.002282 -0.040193 0.070057 -0.055206 50.433200 -40.985400 0.000008 0.000006 8.048830 1.993330 -80.953100 -11.754300 -0.000006 -0.000006 -0.697794 -0.859324 -16.902500
0.000000 0.000000 0.000000 0.000000 0.000000 -0.000000 -6.762080 88.189500 -0.338069 85.787800 1.813340 8.698300 15.735700 0.000005 -0.000001 71.385600 83.382600 -76.910200 8.984550 -0.406207 -0.000000 4.613570 -4.065780 -10.875400 16.377300 -0.000001 -0.000001 -0.199039 0.457629 -1.981850 6.456720 -0.000001 -0.000000 -4.033860 1.911400 5.466530 12.994200 -0.242716 4.980390 -90.926800 2.712270 -71.127100 5.348090 -0.000007 -0.000001 -60.263800 1.383810 -0.837752 24.328600 0.000019 0.000005 4.762690 7.540400 -32.413300 22.291600 -0.000001 0.000005 10.681300 5.304770 -0.061216 12.994500 -0.242716 -4.980390 89.285300 2.915680 -76.213900 -5.348130 -0.000001 -0.000004 -35.469000 -29.927300 -15.363100 -24.328900 0.000322 -0.000009 -0.002171 -18.161800 -0.000101 -22.291500 -0.000108 -0.000004 10.460200 5.277340 0.685883 -2.192480 -6.469440 -0.000000 -165.006000 -13.599000 -7.635520 39.081100 -0.000007 -0.000012 -0.232552 0.256370 42.211500 40.985400 -0.000006 -0.000013 -1.836660 13.789800 -74.806800 11.754300 -0.000000 0.000003 -0.000079 -0.000838 -16.609900 -2.192510 6.469440 -0.000001 -177.115000 20.434200 174.343000 -39.081100 -0.002282 -0.040193 0.046307 -0.049738 40.865000 -40.985400 0.000008 0.000006 8.191640 4.931330 -76.251600 -11.754300 -0.000006 -0.000006 -0.543307 -0.666837 -17.577800
0.000000 0.000000 0.000000 0.000000 0.000000 -0.000000 -6.741070 89.969800 -0.058204 85.776700 2.233530 6.537320 15.735700 0.000005 -0.000001 65.859500 84.661900 -71.619200 8.984550 -0.406207 -0.000000 1.802910 -4.064940 -11.447500 16.377300 -0.000001 -0.000001 1.243020 0.775766 -2.849770 6.456720 -0.000001 -0.000000 -3.985140 2.020260 5.245100 12.994200 -0.242716 4.980390 -91.121200 3.128450 -70.271900 5.348090 -0.000007 -0.000001 -58.967600 -1.115490 1.071990 24.328600 0.000019 0.000005 5.286610 8.665830 -31.555900 22.291600 -0.000001 0.000005 10.272400 5.288130 0.402954 12.994500 -0.242716 -4.980390 90.349000 -1.446840 -76.417600 -5.348130 -0.000001 -0.000004 -22.994800 -40.720500 -18.142000 -24.328900 0.000322 -0.000009 -0.009418 -27.180900 -0.000154 -22.291500 -0.000108 -0.000004 7.666760 5.343540 -1.197680 -2.192480 -6.469440 -0.000000 -165.812000 -13.578300 -5.969740 39.081100 -0.000007 -0.000012 -0.188520 0.273776 34.551300 40.985400 -0.000006 -0.000013 -2.644840 13.392000 -71.031200 11.754300 -0.000000 0.000003 -0.000073 -0.000786 -16.607900 -2.192510 6.469440 -0.000001 -177.403000 23.799100 176.226000 -39.081100 -0.002282 -0.040193 0.030834 -0.041950 33.284000 -40.985400 0.000008 0.000006 7.981780 9.100190 -72.263900 -11.754300 -0.000006 -0.000006 -0.437643 -0.542350 -18.189300
0.000000 0.000000 0.000000 0.000000 0.000000 -0.000000 -6.508410 90.973200 0.167438 85.997300 1.575970 5.311440 15.735700 0.000005 -0.000001 65.393800 85.600000 -71.022600 8.984550 -0.406207 -0.000000 0.099559 -3.287560 -11.248900 16.377300 -0.000001 -0.000001 2.218760 0.824502 -2.521000 6.456720 -0.000001 -0.000000 -3.984060 2.579300 4.076620 12.994200 -0.242716 4.980390 -91.280000 3.492360 -69.857400 5.348090 -0.000007 -0.000001 -58.013600 -2.917390 2.182480 24.328600 0.000019 0.000005 5.575740 9.574300 -30.411700 22.291600 -0.000001 0.000005 10.462500 5.274140 0.785871 12.994500 -0.242716 -4.980390 91.915900 -7.988430 -76.467100 -5.348130 -0.000001 -0.000004 -11.681700 -49.374700 -19.356500 -24.328900 0.000322 -0.000009 -5.421430 -35.982800 -9.161240 -22.291500 -0.000108 -0.000004 9.485010 5.437320 -4.118820 -2.192480 -6.469440 -0.000000 -166.578000 -13.804700 -4.215260 39.081100 -0.000007 -0.000012 -0.152098 0.271169 29.288200 40.985400 -0.000006 -0.000013 -3.185940 12.536600 -68.647500 11.754300 -0.000000 0.000003 -0.000083 -0.000878 -16.611400 -2.192510 6.469440 -0.000001 -177.900000 25.207900 177.701000 -39.081100 -0.002282 -0.040193 0.019841 -0.030582 28.400600 -40.985400 0.000008 0.000006 7.561920 12.119900 -69.896800 -11.754300 -0.000006 -0.000006 -0.024282 -0.061725 -18.075500
0.000000 0.000000 0.000000 0.000000 0.000000 -0.000000 -6.364020 91.428500 0.070198 86.430400 0.825134 4.812870 15.735700 0.000005 -0.000001 67.689700 86.060000 -73.054200 8.984550 -0.406207 -0.000000 -0.574741 -2.601150 -10.737300 16.377300 -0.000001 -0.000001 2.713520 0.233340 -0.162865 6.456720 -0.000001 -0.000000 -4.015160 3.794810 1.406830 12.994200 -0.242716 4.980390 -91.242500 3.296510 -69.333600 5.348090 -0.000007 -0.000001 -58.062500 -4.515140 2.161170 24.328600 0.000019 0.000005 6.347070 11.367300 -29.439300 22.291600 -0.000001 0.000005 11.189100 5.252890 1.353780 12.994500 -0.242716 -4.980390 93.725900 -14.049000 -74.988700 -5.348130 -0.000001 -0.000004 -0.753787 -57.804800 -20.224200 -24.328900 0.000322 -0.000009 -13.977500 -33.982200 -24.022900 -22.291500 -0.000108 -0.000004 16.347800 5.527700 -7.558470 -2.192480 -6.469440 -0.000000 -167.201000 -14.644000 -3.131780 39.081100 -0.000007 -0.000012 -0.133783 0.268761 26.463200 40.985400 -0.000006 -0.000013 -3.352720 12.360600 -67.232300 11.754300 -0.000000 0.000003 -0.000084 -0.000882 -16.611500 -2.192510 6.469440 -0.000001 -178.135000 24.917100 178.559000 -39.081100 -0.002282 -0.040193 0.013609 -0.021579 25.512200 -40.985400 0.000008 0.000006 7.773680 12.605000 -68.792500 -11.754300 -0.000006 -0.000006 -0.233876 -0.305967 -18.250300
0.000000 0.000000 0.000000 0.000000 0.000000 -0.000000 -6.408470 91.622700 -0.220332 86.942500 0.426033 4.570750 15.735700 0.000005 -0.000001 69.606100 86.224800 -74.836300 8.984550 -0.406207 -0.000000 -0.769503 -2.241790 -10.471000 16.377300 -0.000001 -0.000001 3.752720 -0.431208 2.630310 6.456720 -0.000001 -0.000000 -4.788300 5.286440 -0.324941 12.994200 -0.242716 4.980390 -90.942600 2.464810 -69.064300 5.348090 -0.000007 -0.000001 -58.720200 -6.579910 1.719610 24.328600 0.000019 0.000005 7.866780 14.237600 -29.326200 22.291600 -0.000001 0.000005 12.002500 5.226440 2.045000 12.994500 -0.242716 -4.980390 95.544400 -17.692800 -72.289900 -5.348130 -0.000001 -0.000004 6.941390 -67.461100 -24.001500 -24.328900 0.000322 -0.000009 -13.835100 -21.808800 -33.553400 -22.291500 -0.000108 -0.000004 22.956600 5.614860 -11.986600 -2.192480 -6.469440 -0.000000 -167.546000 -16.364500 -2.674810 39.081100 -0.000007 -0.000012 -0.117589 0.252103 25.005900 40.985400 -0.000006 -0.000013 -3.259340 13.509400 -66.227900 11.754300 -0.000000 0.000003 -0.000073 -0.000783 -16.607800 -2.192510 6.469440 -0.000001 -178.099000 23.881800 178.732000 -39.081100 -0.002282 -0.040193 0.010194 -0.015337 24.163000 -40.985400 0.000008 0.000006 8.357730 11.621300 -68.730800 -11.754300 -0.000006 -0.000006 -0.002567 -0.035600 -18.020800
0.000000 0.000000 0.000000 0.000000 0.000000 -0.000000 -6.572160 91.720900 -0.530713 87.149100 0.965482 4.233380 15.735700 0.000005 -0.000001 68.309400 86.259000 -73.544600 8.984550 -0.406207 -0.000000 -0.900388 -2.369610 -10.485100 16.377300 -0.000001 -0.000001 4.508130 -1.154270 5.124870 6.456720 -0.000001 -0.000000 -5.122910 6.242830 -0.557279 12.994200 -0.242716 4.980390 -90.652000 1.711520 -69.141900 5.348090 -0.000007 -0.000001 -59.591200 -9.093200 1.765690 24.328600 0.000019 0.000005 9.498960 16.239800 -30.892300 22.291600 -0.000001 0.000005 13.398800 5.203020 2.641650 12.994500 -0.242716 -4.980390 97.193000 -18.391600 -68.197800 -5.348130 -0.000001 -0.000004 -1.769580 -73.952500 -41.250000 -24.328900 0.000322 -0.000009 -15.962900 -21.393700 -38.099200 -22.291500 -0.000108 -0.000004 24.723700 5.631150 -13.420000 -2.192480 -6.469440 -0.000000 -167.621000 -17.546800 -2.990560 39.081100 -0.000007 -0.000012 -0.103808 0.229788 24.311300 40.985400 -0.000006 -0.000013 -3.127160 15.080200 -65.469800 11.754300 -0.000000 0.000003 -0.000081 -0.000860 -16.610700 -2.192510 6.469440 -0.000001 -177.923000 24.156500 178.414000 -39.081100 -0.002282 -0.040193 0.009243 -0.013571 23.598800 -40.985400 0.000008 0.000006 8.461420 11.328400 -68.451700 -11.754300 -0.000006 -0.000006 -0.002609 -0.036100 -18.041100
